<svg version="1.1" id="Capa_1" xmlns="http://www.w3.org/2000/svg" xmlns:xlink="http://www.w3.org/1999/xlink" x="0px" y="0px"
	 viewBox="0 0 246 246" xml:space="preserve" style="background: #ffffff;padding: 20px;width: 100vw;height: 100vh;box-sizing: border-box;">
	<path fill="#182153" d="M211.416,238.5c0,4.142-3.358,7.5-7.5,7.5h-163c-4.142,0-7.5-3.358-7.5-7.5v-16c0-4.142,3.358-7.5,7.5-7.5h163
	c4.142,0,7.5,3.358,7.5,7.5V238.5z M236.893,126.179c0-33.38-27.156-60.536-60.536-60.536c-4.074,0-8.05,0.417-11.899,1.193
	c6.153,13.469,9.756,30.194,9.756,48.461c0,17.046-3.145,32.703-8.566,45.703h-16.603c6.262-12,10.169-28.236,10.169-45.703
	c0-36.183-16.731-66.773-36.536-66.773c-19.804,0-36.535,30.603-36.535,66.785c0,17.467,3.907,33.691,10.169,45.691h-16.6
	c-5.421-13-8.569-28.656-8.569-45.703c0-18.318,3.623-35.064,9.807-48.553c-3.665-0.7-7.442-1.089-11.307-1.089
	c-33.38,0-60.536,27.15-60.536,60.53c0,18.628,8.511,35.309,21.789,46.422c-0.332,1.267-0.479,2.586-0.479,3.956v4.661
	c0,8.633,6.928,15.776,15.561,15.776h153.402c8.633,0,15.037-7.144,15.037-15.776v-4.661c0-1.211,0.158-2.385-0.104-3.517
	C227.896,161.935,236.893,145.054,236.893,126.179z M122.999,0c-8.685,0-15.75,7.065-15.75,15.75s7.065,15.75,15.75,15.75
	s15.75-7.065,15.75-15.75S131.684,0,122.999,0z"/>
	<rect xmlns="http://www.w3.org/2000/svg" stroke="#182153" id="svg_17" height="9" width="157" y="201" x="45" stroke-width="1.5" fill="#182153"/>
	<text xmlns="http://www.w3.org/2000/svg" font-style="normal" font-weight="bold" transform="matrix(2.7519467198875986,0,0,2.206761373657741,-193.86800507304304,-203.60508723765653) " xml:space="preserve" text-anchor="start" font-family="Helvetica, Arial, sans-serif" font-size="24" id="svg_18" y="194.3" x="91" stroke-width="0" fill="#ffffff">CSS</text>
</svg>
